<svg xmlns="http://www.w3.org/2000/svg" width="1000" height="380" viewBox="0 0 1000 380">

  <defs>
    <linearGradient id="bg" x1="0" y1="0" x2="0" y2="1">
      <stop offset="0%" stop-color="#101010"/>
      <stop offset="100%" stop-color="#050505"/>
    </linearGradient>

    <filter id="glow">
      <feGaussianBlur stdDeviation="2.5" result="blur"/>
      <feMerge>
        <feMergeNode in="blur"/>
        <feMergeNode in="SourceGraphic"/>
      </feMerge>
    </filter>

    <pattern id="scan" width="4" height="4" patternUnits="userSpaceOnUse">
      <rect width="4" height="2" fill="#ffffff08"/>
      <rect y="2" width="4" height="2" fill="#00000000"/>
    </pattern>
  </defs>

  <!-- Background -->
  <rect width="100%" height="100%" fill="url(#bg)"/>
  <rect width="100%" height="100%" fill="url(#scan)" opacity=".18"/>

  <!-- Moldura -->
  <rect x="12" y="12" width="976" height="356" rx="8" fill="none" stroke="#00ff88" stroke-width="2"/>

  <!-- Cabeçalho -->
  <text x="30" y="42" fill="#7dffb3" font-size="24" font-family="JetBrains Mono, Consolas, monospace" filter="url(#glow)">STA CONTROL CENTER</text>
  <text x="830" y="42" fill="#55ff55" font-size="18" font-family="JetBrains Mono, Consolas, monospace">BUILD 10.0</text>
  <line x1="25" y1="58" x2="975" y2="58" stroke="#00ff88"/>

  <!-- Serviços -->
  <g fill="#7dffb3" font-family="JetBrains Mono, Consolas, monospace" font-size="18">
    <text x="40" y="95">● POWER</text>
    <text x="280" y="95" fill="#00ff66">ONLINE</text>

    <text x="40" y="125">● WORKER</text>
    <text x="280" y="125" fill="#00ff66">RUNNING</text>

    <text x="40" y="155">● DATABASE</text>
    <text x="280" y="155" fill="#00ff66">CONNECTED</text>

    <text x="40" y="185">● FILE TRANSFER</text>
    <text x="280" y="185" fill="#00ff66">ACTIVE</text>

    <text x="40" y="215">◐ REST API</text>
    <text x="280" y="215" fill="#ffd54d">PHASE 6</text>

    <text x="40" y="245">○ DASHBOARD</text>
    <text x="280" y="245" fill="#888888">OFFLINE</text>
  </g>

  <!-- Barras -->
  <g font-family="JetBrains Mono, Consolas, monospace" font-size="17">
    <text x="530" y="95" fill="#7dffb3">CPU</text>
    <rect x="600" y="80" width="250" height="14" fill="#222"/>
    <rect x="600" y="80" width="55" height="14" fill="#00ff66"/>
    <text x="870" y="92" fill="#55ff55">22%</text>

    <text x="530" y="130" fill="#7dffb3">RAM</text>
    <rect x="600" y="115" width="250" height="14" fill="#222"/>
    <rect x="600" y="115" width="95" height="14" fill="#00ff66"/>
    <text x="870" y="127" fill="#55ff55">38%</text>

    <text x="530" y="165" fill="#7dffb3">NETWORK</text>
    <rect x="600" y="150" width="250" height="14" fill="#222"/>
    <rect x="600" y="150" width="180" height="14" fill="#00ff66"/>
    <text x="870" y="162" fill="#55ff55">72%</text>

    <text x="530" y="200" fill="#7dffb3">DISK</text>
    <rect x="600" y="185" width="250" height="14" fill="#222"/>
    <rect x="600" y="185" width="80" height="14" fill="#00ff66"/>
    <text x="870" y="197" fill="#55ff55">32%</text>
  </g>

  <!-- Rodapé -->
  <line x1="25" y1="280" x2="975" y2="280" stroke="#00ff88"/>

  <g fill="#7dffb3" font-size="18" font-family="JetBrains Mono, Consolas, monospace">
    <text x="40" y="315">LAST TRANSFER</text>
    <text x="300" y="315" fill="#00ff66">SUCCESS</text>

    <text x="40" y="345">NEXT CYCLE</text>
    <text x="300" y="345">00:04:58</text>

    <text x="610" y="315">FILES TODAY</text>
    <text x="850" y="315">1248</text>

    <text x="610" y="345">ERRORS</text>
    <text x="850" y="345" fill="#00ff66">0</text>
  </g>

</svg>